<?xml version="1.0" encoding="iso-8859-1"?>
<!-- Generator: Adobe Illustrator 21.0.0, SVG Export Plug-In . SVG Version: 6.00 Build 0)  -->
<svg version="1.1" id="Capa_1" xmlns="http://www.w3.org/2000/svg" xmlns:xlink="http://www.w3.org/1999/xlink" x="0px" y="0px"
	 viewBox="0 0 512.001 512.001" style="enable-background:new 0 0 512.001 512.001;" xml:space="preserve">
<path style="fill:#DCD2CD;" d="M445.649,266.24l-17.897-10.241l17.897-10.241c26.562-15.199,43.061-43.775,43.061-74.579
	c0-64.994-71.061-106.796-128.151-74.129l-19.632,11.233c-0.367-18.696,1.065-27.312-2.053-41.242c-0.91-4.07-4.942-6.63-9.017-5.72
	c-4.069,0.911-6.629,4.948-5.719,9.017c2.696,12.049,1.308,18.79,1.687,46.584L255.261,157.3l-70.566-40.377V85.666
	c0-38.91,31.656-70.566,70.567-70.566c23.021,0,44.688,11.381,57.956,30.444c2.381,3.423,7.087,4.266,10.51,1.883
	c3.423-2.382,4.265-7.087,1.883-10.51C309.521,13.801,283.222,0,255.262,0c-47.236,0-85.666,38.429-85.666,85.666v22.62
	l-19.632-11.233c-40.999-23.46-93.439-9.191-116.898,31.809c-23.459,40.999-9.19,93.439,31.809,116.899l17.897,10.241
	l-17.897,10.241c-26.562,15.199-43.061,43.775-43.061,74.579c0,44.371,34.012,81.158,78.291,85.051
	c0.225,0.02,0.448,0.028,0.67,0.028c3.871,0,7.167-2.96,7.512-6.89c0.365-4.153-2.706-7.817-6.859-8.182
	c-36.463-3.203-64.514-33.442-64.514-70.008c0-25.402,13.588-48.958,35.461-61.473l25.6-14.648l71.623,40.982v80.637
	c-23.982,13.293-29.468,18.015-41.224,21.655c-3.983,1.233-6.212,5.462-4.979,9.445c1.233,3.982,5.461,6.215,9.445,4.978
	c13.617-4.218,20.342-9.711,36.756-18.683v22.62c0,47.236,38.429,85.666,85.666,85.666s85.666-38.429,85.666-85.666v-22.62
	c13.207,6.248,30.599,22.529,62.033,22.529c29.744,0,58.697-15.49,74.498-43.104C500.918,342.141,486.648,289.7,445.649,266.24z
	 M402.879,100.898c38.801,0,70.731,31.17,70.731,70.281c0,25.402-13.588,48.958-35.461,61.473l-25.6,14.649l-71.623-40.982v-80.637
	C361.635,115.368,375.515,100.898,402.879,100.898z M255.262,337.301l-70.566-40.377v-81.847l70.566-40.377l70.566,40.377v81.847
	L255.262,337.301z M325.828,314.321v63.358l-55.364-31.679L325.828,314.321z M340.927,223.717l56.421,32.284l-56.421,32.284V223.717
	z M325.828,134.322v63.357L270.464,166L325.828,134.322z M240.059,166l-55.364,31.679v-63.358L240.059,166z M72.372,232.653
	c-33.702-19.285-45.485-62.594-26.201-96.294c13.016-22.748,36.863-35.506,61.366-35.506c27.536,0,41.767,14.79,62.059,24.829
	v80.637l-71.623,40.982L72.372,232.653z M113.175,256.001l56.421-32.284v64.567L113.175,256.001z M184.695,314.321L240.059,346
	l-55.364,31.679V314.321z M325.828,426.335c0,38.909-31.655,70.566-70.566,70.566s-70.566-31.655-70.566-70.566v-31.26
	l70.566-40.377l70.566,40.377V426.335z M368.058,401.843l-27.131-15.525v-80.637l71.623-40.982l25.6,14.648
	c16.285,9.319,27.988,24.499,32.952,42.745C487.565,382.592,422.479,432.978,368.058,401.843z"/>
<path style="fill:#3E9DC3;" d="M288.965,278.721c-10.64,15.774-30.401,21.714-47.514,15.513c-3.08-1.107-6.07-2.617-8.909-4.53
	c-18.613-12.553-23.536-37.81-10.983-56.423s37.81-23.536,56.423-10.983c7.429,5.013,12.674,12.04,15.492,19.871
	C297.743,253.957,296.505,267.537,288.965,278.721z"/>
<path style="fill:#D63030;" d="M67.842,141.201c-8.013,11.889-22.358,16.952-35.505,13.721c-3.715-0.896-7.339-2.466-10.691-4.731
	c-15.241-10.278-19.267-30.955-8.989-46.196s30.955-19.267,46.196-8.989c7.137,4.822,11.818,11.919,13.711,19.67
	C74.727,123.464,73.308,133.097,67.842,141.201z"/>
<path style="fill:#5CA33B;" d="M499.345,404.976c-8.003,11.889-22.348,16.952-35.505,13.721c-3.715-0.906-7.339-2.466-10.691-4.731
	c-15.241-10.268-19.257-30.955-8.989-46.196c10.278-15.241,30.965-19.257,46.196-8.989c7.137,4.822,11.818,11.919,13.711,19.67
	C506.232,387.249,504.813,396.882,499.345,404.976z"/>
<path style="fill:#7FBED7;" d="M288.965,278.721c-10.64,15.774-30.401,21.714-47.514,15.513c-4.268-11.788-3.03-25.368,4.51-36.552
	c10.64-15.774,30.401-21.714,47.514-15.513C297.743,253.957,296.505,267.537,288.965,278.721z"/>
<path style="fill:#F44545;" d="M67.842,141.201c-8.013,11.889-22.358,16.952-35.505,13.721c-2.164-8.788-0.745-18.422,4.721-26.525
	c8.013-11.889,22.358-16.952,35.505-13.721C74.727,123.464,73.308,133.097,67.842,141.201z"/>
<path style="fill:#6DC54A;" d="M499.345,404.976c-8.003,11.889-22.348,16.952-35.505,13.721c-2.164-8.788-0.745-18.422,4.721-26.525
	c8.013-11.889,22.348-16.942,35.505-13.721C506.232,387.249,504.813,396.882,499.345,404.976z"/>
<g>
</g>
<g>
</g>
<g>
</g>
<g>
</g>
<g>
</g>
<g>
</g>
<g>
</g>
<g>
</g>
<g>
</g>
<g>
</g>
<g>
</g>
<g>
</g>
<g>
</g>
<g>
</g>
<g>
</g>
</svg>
