<?xml version="1.0" encoding="iso-8859-1"?>
<!-- Generator: Adobe Illustrator 21.0.0, SVG Export Plug-In . SVG Version: 6.00 Build 0)  -->
<svg version="1.1" id="Capa_1" xmlns="http://www.w3.org/2000/svg" xmlns:xlink="http://www.w3.org/1999/xlink" x="0px" y="0px"
	 viewBox="0 0 512.001 512.001" style="enable-background:new 0 0 512.001 512.001;" xml:space="preserve">
<path style="fill:#5A5555;" d="M465.332,52.495v407.005c0,28.875-23.631,52.495-52.495,52.495H99.298
	c-28.864,0-52.495-23.621-52.495-52.495V52.495C46.802,23.61,70.434,0,99.298,0h313.539C441.701,0,465.332,23.61,465.332,52.495z"/>
<path style="fill:#736E6E;" d="M465.332,52.495v407.005c0,28.875-23.631,52.495-52.495,52.495H138.555
	c-28.864,0-52.495-23.621-52.495-52.495V52.495C86.06,23.61,109.691,0,138.555,0h274.282C441.701,0,465.332,23.61,465.332,52.495z"
	/>
<path style="fill:#FF883E;" d="M465.329,141.345v318.161c0,10.14-2.916,19.622-7.941,27.661
	c-9.286,14.881-25.816,24.835-44.555,24.835H99.301c-18.64,0-35.092-9.845-44.407-24.599c-5.124-8.099-8.088-17.659-8.088-27.896
	V141.345H465.329z"/>
<path style="fill:#EBE1DC;" d="M426.075,57.417v26.829c0,13.768-11.265,25.033-25.033,25.033h-289.95
	c-13.768,0-25.033-11.265-25.033-25.033V57.417c0-13.757,11.265-25.033,25.033-25.033h289.95
	C414.81,32.384,426.075,43.66,426.075,57.417z"/>
<path style="fill:#FFF5F5;" d="M426.075,57.417v26.829c0,13.768-11.265,25.033-25.033,25.033H155.77
	c-13.768,0-25.033-11.265-25.033-25.033V57.417c0-13.757,11.265-25.033,25.033-25.033h245.273
	C414.81,32.384,426.075,43.66,426.075,57.417z"/>
<path style="fill:#D63030;" d="M419.482,323.995V372.7c0,16.311-13.342,29.653-29.653,29.653s-29.653-13.342-29.653-29.653v-48.706
	c0-16.311,13.342-29.653,29.653-29.653c8.15,0,15.564,3.333,20.942,8.711C416.149,308.431,419.482,315.844,419.482,323.995z"/>
<g>
	<path style="fill:#5A5555;" d="M153.766,200.045c0,17.37-14.089,31.46-31.46,31.46c-17.381,0-31.46-14.089-31.46-31.46
		c0-3.821,0.675-7.476,1.931-10.86c4.413-12.034,15.969-20.61,29.529-20.61c13.56,0,25.116,8.576,29.529,20.61
		C153.091,192.57,153.766,196.224,153.766,200.045z"/>
	<path style="fill:#5A5555;" d="M242.985,200.045c0,17.37-14.089,31.46-31.46,31.46c-17.381,0-31.46-14.089-31.46-31.46
		c0-3.821,0.675-7.476,1.931-10.86c4.413-12.034,15.969-20.61,29.529-20.61c13.56,0,25.116,8.576,29.529,20.61
		C242.31,192.57,242.985,196.224,242.985,200.045z"/>
	<path style="fill:#5A5555;" d="M332.204,200.045c0,17.37-14.079,31.46-31.46,31.46s-31.46-14.089-31.46-31.46
		c0-3.821,0.675-7.476,1.931-10.86c4.413-12.034,15.969-20.61,29.529-20.61c13.56,0,25.116,8.576,29.529,20.61
		C331.53,192.57,332.204,196.224,332.204,200.045z"/>
	<path style="fill:#5A5555;" d="M153.766,285.464c0,17.381-14.089,31.46-31.46,31.46c-17.381,0-31.46-14.079-31.46-31.46
		c0-3.821,0.685-7.476,1.931-10.86c4.423-12.023,15.969-20.599,29.529-20.599c13.55,0,25.106,8.576,29.529,20.599
		C153.081,277.989,153.766,281.643,153.766,285.464z"/>
	<path style="fill:#5A5555;" d="M242.985,285.464c0,17.381-14.089,31.46-31.46,31.46c-17.381,0-31.46-14.079-31.46-31.46
		c0-3.821,0.685-7.476,1.931-10.86c4.423-12.023,15.969-20.599,29.529-20.599c13.55,0,25.106,8.576,29.529,20.599
		C242.3,277.989,242.985,281.643,242.985,285.464z"/>
	<path style="fill:#5A5555;" d="M332.204,285.464c0,17.381-14.079,31.46-31.46,31.46s-31.46-14.079-31.46-31.46
		c0-3.821,0.685-7.476,1.931-10.86c4.423-12.023,15.969-20.599,29.529-20.599c13.56,0,25.106,8.576,29.529,20.599
		C331.519,277.989,332.204,281.643,332.204,285.464z"/>
	<path style="fill:#5A5555;" d="M153.766,370.894c0,17.37-14.089,31.46-31.46,31.46c-17.381,0-31.46-14.089-31.46-31.46
		c0-3.821,0.675-7.476,1.931-10.86c4.413-12.023,15.969-20.599,29.529-20.599c13.56,0,25.116,8.576,29.529,20.599
		C153.091,363.418,153.766,367.073,153.766,370.894z"/>
	<path style="fill:#5A5555;" d="M242.985,370.894c0,17.37-14.089,31.46-31.46,31.46c-17.381,0-31.46-14.089-31.46-31.46
		c0-3.821,0.675-7.476,1.931-10.86c4.413-12.023,15.969-20.599,29.529-20.599c13.56,0,25.116,8.576,29.529,20.599
		C242.31,363.418,242.985,367.073,242.985,370.894z"/>
	<path style="fill:#5A5555;" d="M332.204,370.894c0,17.37-14.079,31.46-31.46,31.46s-31.46-14.089-31.46-31.46
		c0-3.821,0.675-7.476,1.931-10.86c4.413-12.023,15.969-20.599,29.529-20.599c13.56,0,25.116,8.576,29.529,20.599
		C331.53,363.418,332.204,367.073,332.204,370.894z"/>
	<path style="fill:#5A5555;" d="M153.766,457.569c0,17.381-14.089,31.46-31.46,31.46c-17.381,0-31.46-14.079-31.46-31.46
		c0-3.821,0.685-7.476,1.931-10.86c4.423-12.023,15.969-20.599,29.529-20.599c13.55,0,25.106,8.576,29.529,20.599
		C153.081,450.094,153.766,453.748,153.766,457.569z"/>
	<path style="fill:#5A5555;" d="M242.985,457.569c0,17.381-14.089,31.46-31.46,31.46c-17.381,0-31.46-14.079-31.46-31.46
		c0-3.821,0.685-7.476,1.931-10.86c4.423-12.023,15.969-20.599,29.529-20.599c13.55,0,25.106,8.576,29.529,20.599
		C242.3,450.094,242.985,453.748,242.985,457.569z"/>
	<path style="fill:#5A5555;" d="M332.204,457.569c0,17.381-14.079,31.46-31.46,31.46s-31.46-14.079-31.46-31.46
		c0-3.821,0.685-7.476,1.931-10.86c4.423-12.023,15.969-20.599,29.529-20.599c13.56,0,25.106,8.576,29.529,20.599
		C331.519,450.094,332.204,453.748,332.204,457.569z"/>
	<path style="fill:#5A5555;" d="M421.289,457.569c0,17.381-14.079,31.46-31.46,31.46c-17.37,0-31.46-14.079-31.46-31.46
		c0-3.821,0.685-7.476,1.931-10.86c4.423-12.023,15.979-20.599,29.529-20.599c13.56,0,25.106,8.576,29.529,20.599
		C420.603,450.094,421.289,453.748,421.289,457.569z"/>
</g>
<path style="fill:#D63030;" d="M419.482,197.398v44.054c0,15.844-12.958,28.812-28.812,28.812h-1.682
	c-15.844,0-28.812-12.968-28.812-28.812v-44.054c0-15.855,12.968-28.823,28.812-28.823h1.682
	C406.524,168.575,419.482,181.543,419.482,197.398z"/>
<path style="fill:#F44545;" d="M419.482,323.995v26.974c0,16.311-13.342,29.664-29.653,29.664s-29.653-13.352-29.653-29.664v-26.974
	c0-16.311,13.342-29.653,29.653-29.653c8.15,0,15.564,3.333,20.942,8.711C416.149,308.431,419.482,315.844,419.482,323.995z"/>
<g>
	<path style="fill:#736E6E;" d="M151.835,189.185c-4.423,12.023-15.979,20.589-29.529,20.589c-13.56,0-25.106-8.566-29.529-20.589
		c4.413-12.034,15.969-20.61,29.529-20.61C135.866,168.575,147.422,177.151,151.835,189.185z"/>
	<path style="fill:#736E6E;" d="M241.054,189.185c-4.423,12.023-15.979,20.589-29.529,20.589c-13.56,0-25.106-8.566-29.529-20.589
		c4.413-12.034,15.969-20.61,29.529-20.61C225.085,168.575,236.641,177.151,241.054,189.185z"/>
	<path style="fill:#736E6E;" d="M330.273,189.185c-4.423,12.023-15.969,20.589-29.529,20.589c-13.56,0-25.106-8.566-29.529-20.589
		c4.413-12.034,15.969-20.61,29.529-20.61C314.305,168.575,325.861,177.151,330.273,189.185z"/>
	<path style="fill:#736E6E;" d="M151.835,274.604c-4.423,12.023-15.979,20.599-29.529,20.599c-13.56,0-25.106-8.576-29.529-20.599
		c4.423-12.023,15.969-20.599,29.529-20.599C135.856,254.004,147.412,262.581,151.835,274.604z"/>
	<path style="fill:#736E6E;" d="M241.054,274.604c-4.423,12.023-15.979,20.599-29.529,20.599c-13.56,0-25.106-8.576-29.529-20.599
		c4.423-12.023,15.969-20.599,29.529-20.599C225.075,254.004,236.631,262.581,241.054,274.604z"/>
	<path style="fill:#736E6E;" d="M330.273,274.604c-4.423,12.023-15.969,20.599-29.529,20.599c-13.56,0-25.106-8.576-29.529-20.599
		c4.423-12.023,15.969-20.599,29.529-20.599C314.305,254.004,325.85,262.581,330.273,274.604z"/>
	<path style="fill:#736E6E;" d="M151.835,360.033c-4.423,12.023-15.979,20.599-29.529,20.599c-13.56,0-25.106-8.576-29.529-20.599
		c4.413-12.023,15.969-20.599,29.529-20.599C135.866,339.434,147.422,348.01,151.835,360.033z"/>
	<path style="fill:#736E6E;" d="M241.054,360.033c-4.423,12.023-15.979,20.599-29.529,20.599c-13.56,0-25.106-8.576-29.529-20.599
		c4.413-12.023,15.969-20.599,29.529-20.599C225.085,339.434,236.641,348.01,241.054,360.033z"/>
	<path style="fill:#736E6E;" d="M330.273,360.033c-4.423,12.023-15.969,20.599-29.529,20.599c-13.56,0-25.106-8.576-29.529-20.599
		c4.413-12.023,15.969-20.599,29.529-20.599C314.305,339.434,325.861,348.01,330.273,360.033z"/>
	<path style="fill:#736E6E;" d="M151.835,446.709c-4.423,12.023-15.979,20.599-29.529,20.599c-13.56,0-25.106-8.576-29.529-20.599
		c4.423-12.023,15.969-20.599,29.529-20.599C135.856,426.109,147.412,434.686,151.835,446.709z"/>
	<path style="fill:#736E6E;" d="M241.054,446.709c-4.423,12.023-15.979,20.599-29.529,20.599c-13.56,0-25.106-8.576-29.529-20.599
		c4.423-12.023,15.969-20.599,29.529-20.599C225.075,426.109,236.631,434.686,241.054,446.709z"/>
	<path style="fill:#736E6E;" d="M330.273,446.709c-4.423,12.023-15.969,20.599-29.529,20.599c-13.56,0-25.106-8.576-29.529-20.599
		c4.423-12.023,15.969-20.599,29.529-20.599C314.305,426.109,325.85,434.686,330.273,446.709z"/>
	<path style="fill:#736E6E;" d="M419.358,446.709c-4.423,12.023-15.969,20.599-29.529,20.599c-13.55,0-25.106-8.576-29.529-20.599
		c4.423-12.023,15.979-20.599,29.529-20.599C403.389,426.109,414.934,434.686,419.358,446.709z"/>
</g>
<path style="fill:#F44545;" d="M419.482,197.398v22.333c0,15.844-12.958,28.812-28.812,28.812h-1.682
	c-15.844,0-28.812-12.968-28.812-28.812v-22.333c0-15.855,12.968-28.823,28.812-28.823h1.682
	C406.524,168.575,419.482,181.543,419.482,197.398z"/>
<g>
	<path style="fill:#F95F00;" d="M138.555,511.996H99.298c-22.15,0-40.952-13.972-48.54-32.581c-0.01-0.01-0.021-0.021-0.021-0.031
		c-0.422-1.015-1.817-4.864-1.817-5.16c-4.016-13.306-1.253-4.619-2.118-332.882H86.06v318.16
		C86.06,488.375,109.691,511.996,138.555,511.996z"/>
	<path style="fill:#F95F00;" d="M138.555,511.996H99.298c-22.15,0-40.952-13.972-48.54-32.581c-0.01-0.01-0.021-0.021-0.021-0.031
		c-0.422-1.015-1.817-4.864-1.817-5.16c-4.016-13.306-1.253-4.619-2.118-332.882H86.06v318.16
		C86.06,488.375,109.691,511.996,138.555,511.996z"/>
</g>
<g>
</g>
<g>
</g>
<g>
</g>
<g>
</g>
<g>
</g>
<g>
</g>
<g>
</g>
<g>
</g>
<g>
</g>
<g>
</g>
<g>
</g>
<g>
</g>
<g>
</g>
<g>
</g>
<g>
</g>
</svg>
