<?xml version="1.0" encoding="iso-8859-1"?>
<!-- Generator: Adobe Illustrator 21.0.0, SVG Export Plug-In . SVG Version: 6.00 Build 0)  -->
<svg version="1.1" id="Capa_1" xmlns="http://www.w3.org/2000/svg" xmlns:xlink="http://www.w3.org/1999/xlink" x="0px" y="0px"
	 viewBox="0 0 512 512" style="enable-background:new 0 0 512 512;" xml:space="preserve">
<path style="fill:#F44545;" d="M146.877,471.133v29.454c0,4.544-2.656,8.466-6.495,10.313c-1.494,0.705-3.164,1.1-4.918,1.1H119.27
	c-6.298,0-11.412-5.104-11.412-11.412v-29.454H146.877z"/>
<path style="fill:#65B1CF;" d="M447.51,471.133v29.454c0,4.544-2.656,8.466-6.495,10.313c-1.494,0.705-3.154,1.1-4.918,1.1h-16.195
	c-6.298,0-11.412-5.104-11.412-11.412v-29.454H447.51z"/>
<path style="fill:#6DC54A;" d="M297.188,471.133v29.454c0,4.544-2.656,8.466-6.495,10.302c-1.484,0.716-3.154,1.11-4.918,1.11
	h-16.185c-6.308,0-11.412-5.104-11.412-11.412v-29.454H297.188z"/>
<path style="fill:#F44545;" d="M56.906,210.776c-4.297,0-7.781-3.483-7.781-7.781V61.414c0-7.723,6.283-14.006,14.006-14.006h26.065
	c4.297,0,7.781,3.483,7.781,7.781s-3.484,7.781-7.781,7.781H64.687v140.024C64.687,207.293,61.203,210.776,56.906,210.776z"/>
<path style="fill:#D63030;" d="M150.622,201.895v268.346c0,1.816-1.473,3.289-3.299,3.289h-39.912c-1.826,0-3.299-1.473-3.299-3.289
	V201.895c0-1.816,1.473-3.289,3.299-3.289h39.912C149.149,198.606,150.622,200.079,150.622,201.895z"/>
<path style="fill:#65B1CF;" d="M357.539,210.776c-4.297,0-7.781-3.483-7.781-7.781V61.414c0-7.723,6.283-14.006,14.006-14.006
	h26.066c4.297,0,7.781,3.483,7.781,7.781s-3.484,7.781-7.781,7.781h-24.51v140.024C365.32,207.293,361.836,210.776,357.539,210.776z
	"/>
<path style="fill:#3E9DC3;" d="M451.255,201.895v268.346c0,1.816-1.473,3.289-3.299,3.289h-39.912c-1.826,0-3.299-1.473-3.299-3.289
	V201.895c0-1.816,1.473-3.289,3.299-3.289h39.912C449.782,198.606,451.255,200.079,451.255,201.895z"/>
<path style="fill:#6DC54A;" d="M207.223,210.776c-4.297,0-7.781-3.483-7.781-7.781V61.414c0-7.723,6.283-14.006,14.006-14.006
	h26.065c4.297,0,7.781,3.483,7.781,7.781s-3.484,7.781-7.781,7.781h-24.509v140.024C215.004,207.293,211.52,210.776,207.223,210.776
	z"/>
<path style="fill:#5CA33B;" d="M300.934,201.895v268.346c0,1.816-1.473,3.289-3.289,3.289h-39.923c-1.816,0-3.289-1.473-3.289-3.289
	V201.895c0-1.816,1.473-3.289,3.289-3.289h39.923C299.46,198.606,300.934,200.079,300.934,201.895z"/>
<path style="fill:#F44545;" d="M162.242,34.88v166.558c0,2.438-1.982,4.42-4.42,4.42H96.912c-2.438,0-4.42-1.982-4.42-4.42V34.88
	c0-19.266,15.614-34.88,34.88-34.88c4.596,0,8.995,0.892,13.01,2.511c4.399,1.764,8.352,4.409,11.651,7.709
	C158.341,16.527,162.242,25.242,162.242,34.88z"/>
<path style="fill:#65B1CF;" d="M462.875,34.88v166.558c0,2.438-1.982,4.42-4.42,4.42h-60.911c-2.438,0-4.42-1.982-4.42-4.42V34.88
	c0-19.266,15.614-34.88,34.87-34.88c4.606,0,8.995,0.892,13.02,2.511c4.399,1.764,8.341,4.409,11.641,7.709
	C458.974,16.527,462.875,25.242,462.875,34.88z"/>
<path style="fill:#6DC54A;" d="M312.564,34.88v166.558c0,2.438-1.982,4.42-4.42,4.42h-60.921c-2.438,0-4.42-1.982-4.42-4.42V34.88
	c0-19.266,15.614-34.88,34.88-34.88c4.596,0,8.995,0.892,13.01,2.511c4.399,1.764,8.352,4.409,11.651,7.709
	C308.663,16.527,312.564,25.242,312.564,34.88z"/>
<path style="fill:#FB5858;" d="M146.877,471.133v29.454c0,4.544-2.656,8.466-6.495,10.313c-3.849-1.836-6.505-5.758-6.505-10.313
	v-29.454H146.877z"/>
<path style="fill:#7FBED7;" d="M447.51,471.133v29.454c0,4.544-2.656,8.466-6.495,10.313c-3.849-1.836-6.505-5.758-6.505-10.313
	v-29.454H447.51z"/>
<path style="fill:#97D57E;" d="M297.188,471.133v29.454c0,4.544-2.656,8.466-6.495,10.302c-3.839-1.836-6.495-5.758-6.495-10.302
	v-29.454H297.188z"/>
<path style="fill:#F44545;" d="M150.622,201.895v268.346c0,1.816-1.473,3.289-3.299,3.289h-13.902c-1.816,0-3.289-1.473-3.289-3.289
	V201.895c0-1.816,1.473-3.289,3.289-3.289h13.902C149.149,198.606,150.622,200.079,150.622,201.895z"/>
<path style="fill:#65B1CF;" d="M451.255,201.895v268.346c0,1.816-1.473,3.289-3.299,3.289h-13.902c-1.816,0-3.289-1.473-3.289-3.289
	V201.895c0-1.816,1.473-3.289,3.289-3.289h13.902C449.782,198.606,451.255,200.079,451.255,201.895z"/>
<path style="fill:#6DC54A;" d="M300.934,201.895v268.346c0,1.816-1.473,3.289-3.289,3.289h-13.902c-1.816,0-3.289-1.473-3.289-3.289
	V201.895c0-1.816,1.473-3.289,3.289-3.289h13.902C299.46,198.606,300.934,200.079,300.934,201.895z"/>
<path style="fill:#FB5858;" d="M162.242,34.88v166.558c0,2.438-1.982,4.42-4.42,4.42h-34.891c-2.448,0-4.42-1.982-4.42-4.42V34.88
	c0-14.67,9.047-27.213,21.87-32.37c4.399,1.764,8.352,4.409,11.651,7.709C158.341,16.527,162.242,25.242,162.242,34.88z"/>
<path style="fill:#7FBED7;" d="M462.875,34.88v166.558c0,2.438-1.982,4.42-4.42,4.42h-34.891c-2.448,0-4.42-1.982-4.42-4.42V34.88
	c0-14.67,9.047-27.213,21.87-32.37c4.399,1.764,8.341,4.409,11.641,7.709C458.974,16.527,462.875,25.242,462.875,34.88z"/>
<path style="fill:#97D57E;" d="M312.564,34.88v166.558c0,2.438-1.982,4.42-4.42,4.42h-34.901c-2.438,0-4.42-1.982-4.42-4.42V34.88
	c0-14.67,9.047-27.213,21.87-32.37c4.399,1.764,8.352,4.409,11.651,7.709C308.663,16.527,312.564,25.242,312.564,34.88z"/>
<g>
</g>
<g>
</g>
<g>
</g>
<g>
</g>
<g>
</g>
<g>
</g>
<g>
</g>
<g>
</g>
<g>
</g>
<g>
</g>
<g>
</g>
<g>
</g>
<g>
</g>
<g>
</g>
<g>
</g>
</svg>
