<?xml version="1.0" encoding="iso-8859-1"?>
<!-- Generator: Adobe Illustrator 21.0.0, SVG Export Plug-In . SVG Version: 6.00 Build 0)  -->
<svg version="1.1" id="Capa_1" xmlns="http://www.w3.org/2000/svg" xmlns:xlink="http://www.w3.org/1999/xlink" x="0px" y="0px"
	 viewBox="0 0 512 512" style="enable-background:new 0 0 512 512;" xml:space="preserve">
<path style="fill:#7FBED7;" d="M503.613,324.832h-20.252c0-37.345-8.995-72.494-24.901-103.56
	c-33.598-65.416-85.492-90.742-92.74-95.618C214.129,41.932,28.639,152.512,28.639,324.832H8.387c-4.607,0-8.387,3.769-8.387,8.376
	v73.306c0,4.618,3.779,8.387,8.387,8.387h495.227c4.608,0,8.387-3.769,8.387-8.387v-73.306
	C512,328.6,508.221,324.832,503.613,324.832z M117.786,324.832c0-76.339,61.875-138.224,138.214-138.224
	s138.214,61.885,138.214,138.224H117.786z"/>
<g>
	<path style="fill:#65B1CF;" d="M277.857,98.133c-106.89,10.33-200.366,97.008-206.124,215.128
		c-0.317,6.496-5.741,11.57-12.245,11.57H28.639C28.639,184.992,150.794,85.812,277.857,98.133z"/>
	<path style="fill:#65B1CF;" d="M512,333.208v73.306c0,4.618-3.779,8.387-8.387,8.387H8.387C3.779,414.9,0,411.131,0,406.514
		v-73.306c0-4.607,3.779-8.376,8.387-8.376h495.227C508.221,324.832,512,328.6,512,333.208z"/>
</g>
<path style="fill:#7FBED7;" d="M512,333.208v57.837H36.311c-4.607,0-8.387-3.769-8.387-8.387v-57.826h475.689
	C508.221,324.832,512,328.6,512,333.208z"/>
<g>
	<path style="fill:#3993B7;" d="M52.888,376.197V414.9H37.357v-38.703c0-4.287,3.479-7.765,7.765-7.765
		C49.419,368.432,52.888,371.911,52.888,376.197z"/>
	<path style="fill:#3993B7;" d="M105.61,376.197V414.9H90.079v-38.703c0-4.287,3.479-7.765,7.765-7.765
		C102.131,368.432,105.61,371.911,105.61,376.197z"/>
	<path style="fill:#3993B7;" d="M158.332,376.197V414.9h-15.531v-38.703c0-4.287,3.469-7.765,7.765-7.765
		C154.853,368.432,158.332,371.911,158.332,376.197z"/>
	<path style="fill:#3993B7;" d="M211.043,376.197V414.9h-15.531v-38.703c0-4.287,3.479-7.765,7.765-7.765
		C207.575,368.432,211.043,371.911,211.043,376.197z"/>
	<path style="fill:#3993B7;" d="M263.765,376.197V414.9h-15.531v-38.703c0-4.287,3.479-7.765,7.765-7.765
		C260.287,368.432,263.765,371.911,263.765,376.197z"/>
	<path style="fill:#3993B7;" d="M316.487,376.197V414.9h-15.531v-38.703c0-4.287,3.469-7.765,7.765-7.765
		C313.009,368.432,316.487,371.911,316.487,376.197z"/>
	<path style="fill:#3993B7;" d="M369.199,376.197V414.9h-15.531v-38.703c0-4.287,3.479-7.765,7.765-7.765
		C365.731,368.432,369.199,371.911,369.199,376.197z"/>
	<path style="fill:#3993B7;" d="M421.921,376.197V414.9H406.39v-38.703c0-4.287,3.479-7.765,7.765-7.765
		S421.921,371.911,421.921,376.197z"/>
	<path style="fill:#3993B7;" d="M474.643,376.197V414.9h-15.531v-38.703c0-4.287,3.469-7.765,7.765-7.765
		C471.164,368.432,474.643,371.911,474.643,376.197z"/>
	<path style="fill:#3993B7;" d="M265.557,99.541v38.516c0,4.287-3.479,7.765-7.765,7.765c-4.286,0-7.765-3.479-7.765-7.765V99.541
		c0-0.694,0.093-1.367,0.269-1.998c1.895-0.052,3.8-0.072,5.705-0.072c3.117,0,6.223,0.062,9.319,0.186
		C265.474,98.257,265.557,98.889,265.557,99.541z"/>
	<path style="fill:#3993B7;" d="M210.847,151.373c-0.673,0.176-1.356,0.259-2.019,0.259c-3.427,0-6.564-2.288-7.496-5.757
		l-9.971-37.202c-0.155-0.601-0.249-1.201-0.259-1.802c4.804-1.429,9.691-2.713,14.63-3.821c0.269,0.497,0.476,1.035,0.632,1.605
		l9.971,37.202C217.442,145.999,214.988,150.265,210.847,151.373z"/>
	<path style="fill:#3993B7;" d="M166.925,168.881c-1.222,0.704-2.557,1.035-3.872,1.035c-2.682,0-5.291-1.387-6.73-3.883
		l-19.258-33.36c-0.238-0.414-0.435-0.849-0.59-1.284c4.318-2.682,8.739-5.218,13.253-7.6c0.29,0.342,0.559,0.714,0.787,1.118
		l19.258,33.36C171.916,161.986,170.643,166.728,166.925,168.881z"/>
	<path style="fill:#3993B7;" d="M129.041,197.158c-1.512,1.512-3.5,2.268-5.488,2.268c-1.988,0-3.976-0.756-5.488-2.278
		l-27.241-27.231c-0.217-0.217-0.425-0.445-0.601-0.683c3.52-3.748,7.165-7.382,10.934-10.892c0.228,0.186,0.445,0.383,0.652,0.59
		l27.231,27.241C132.074,189.206,132.074,194.124,129.041,197.158z"/>
	<path style="fill:#3993B7;" d="M63.231,204.23c0.114,0.052,0.228,0.114,0.331,0.176l33.36,19.258
		c3.717,2.143,4.991,6.896,2.847,10.602c-1.439,2.495-4.048,3.883-6.73,3.883c-1.325,0-2.661-0.331-3.883-1.035l-33.36-19.258
		c-0.124-0.072-0.238-0.145-0.352-0.217L63.231,204.23z"/>
	<path style="fill:#3993B7;" d="M81.102,277.701c-0.932,3.469-4.069,5.757-7.496,5.757c-0.673,0-1.346-0.083-2.019-0.269
		l-37.077-9.929c1.18-5.073,2.526-10.074,4.038-15.003l37.057,9.929C79.746,269.304,82.21,273.559,81.102,277.701z"/>
	<path style="fill:#3993B7;" d="M478.443,277.618c-0.269,0.104-0.538,0.197-0.818,0.269l-37.212,9.971
		c-0.673,0.176-1.346,0.269-2.019,0.269c-3.427,0-6.564-2.288-7.496-5.757c-1.108-4.142,1.356-8.407,5.498-9.515l37.202-9.971
		c0.383-0.104,0.777-0.176,1.16-0.207C476.155,267.595,477.387,272.576,478.443,277.618z"/>
	<path style="fill:#3993B7;" d="M458.46,221.272c-0.342,0.28-0.704,0.538-1.098,0.766l-33.36,19.258
		c-1.222,0.704-2.557,1.046-3.872,1.046c-2.682,0-5.291-1.398-6.73-3.883c-2.143-3.717-0.88-8.469,2.837-10.613l33.36-19.258
		c0.466-0.269,0.953-0.487,1.45-0.652C453.666,212.285,456.13,216.737,458.46,221.272z"/>
	<path style="fill:#3993B7;" d="M424.375,172.05c-0.29,0.456-0.642,0.89-1.035,1.284l-27.241,27.241
		c-1.512,1.512-3.5,2.268-5.488,2.268c-1.988,0-3.976-0.756-5.488-2.268c-3.034-3.034-3.034-7.952,0-10.985l27.231-27.241
		c0.456-0.456,0.963-0.849,1.491-1.149C417.479,164.698,420.989,168.312,424.375,172.05z"/>
	<path style="fill:#3993B7;" d="M378.611,133.336c-0.166,0.601-0.414,1.191-0.735,1.75l-19.269,33.36
		c-1.439,2.495-4.048,3.883-6.73,3.883c-1.315,0-2.651-0.331-3.872-1.035c-3.717-2.143-4.991-6.896-2.847-10.613l19.269-33.36
		c0.362-0.621,0.797-1.18,1.294-1.667L378.611,133.336z"/>
	<path style="fill:#3993B7;" d="M324.325,107.918c0,0.673-0.093,1.336-0.269,2.009l-9.971,37.202
		c-0.932,3.469-4.069,5.757-7.496,5.757c-0.663,0-1.346-0.083-2.019-0.269c-4.142-1.108-6.595-5.363-5.488-9.505l9.971-37.212
		c0.197-0.725,0.487-1.387,0.859-1.998C314.779,105.081,319.583,106.427,324.325,107.918z"/>
</g>
<g>
</g>
<g>
</g>
<g>
</g>
<g>
</g>
<g>
</g>
<g>
</g>
<g>
</g>
<g>
</g>
<g>
</g>
<g>
</g>
<g>
</g>
<g>
</g>
<g>
</g>
<g>
</g>
<g>
</g>
</svg>
